<svg width="512" height="512" viewBox="0 0 512 512" fill="none" xmlns="http://www.w3.org/2000/svg">
  <rect width="512" height="512" rx="64" fill="#3B82F6"/>
  <path d="M128 256C128 185.31 185.31 128 256 128C326.69 128 384 185.31 384 256C384 326.69 326.69 384 256 384C185.31 384 128 326.69 128 256Z" fill="white"/>
  <path d="M256 192C284.719 192 308 215.281 308 244V268C308 296.719 284.719 320 256 320C227.281 320 204 296.719 204 268V244C204 215.281 227.281 192 256 192Z" fill="#3B82F6"/>
  <circle cx="256" cy="244" r="20" fill="white"/>
  <rect x="246" y="276" width="20" height="32" rx="10" fill="white"/>
</svg>