<svg width="192" height="192" viewBox="0 0 192 192" fill="none" xmlns="http://www.w3.org/2000/svg">
  <rect width="192" height="192" rx="24" fill="#3B82F6"/>
  <path d="M48 96C48 69.49 69.49 48 96 48C122.51 48 144 69.49 144 96C144 122.51 122.51 144 96 144C69.49 144 48 122.51 48 96Z" fill="white"/>
  <path d="M96 72C107.046 72 116 80.954 116 92V100C116 111.046 107.046 120 96 120C84.954 120 76 111.046 76 100V92C76 80.954 84.954 72 96 72Z" fill="#3B82F6"/>
  <circle cx="96" cy="92" r="8" fill="white"/>
  <rect x="92" y="104" width="8" height="12" rx="4" fill="white"/>
</svg>